# xmcd
#
# Track frame offsets: 
#        150
#        769
#        1263
#        2048
#        34059
#        68580
#        74077
#        82351
#        93586
#        98287
#        102052
#        132499
#        142821
#        148357
#        153674
#        155207
#        161837
#        170885
#        186256
#        211400
#        222558
#        224738
#        235194
#        241998
#        247655
#        249547
#        259458
#        260018
#        261784
#        278986
#        289514
#        313836
#        320907
#
# Disc length: 4534 seconds
#
# Revision: 0
# Processed by: cddbd v1.5.2PL0 Copyright (c) Steve Scherf et al.
# Submitted via: ExactAudioCopy v0.95b3
#
DISCID=fb11b421
DTITLE=The Beatles  - AB  Road - Complete Purple Chick Set v1.1 Jan.21
DTITLE=Various Artist - D1  FLAC
DYEAR=1900
DGENRE=
TTITLE0=Dialogue
TTITLE1=Dialogue
TTITLE2=Dialogue
TTITLE3=Dialogue
TTITLE4=My Rock And Roll Finger Is Bleeding 21.01
TTITLE5=Window, Window 21.02
TTITLE6=Dialogue
TTITLE7=Instrumental 21.03
TTITLE8=Do The Bunny Hop 21.04
TTITLE9=Unknown 21.05
TTITLE10=Instrumental 21.06
TTITLE11=Somethin' Else 21.07
TTITLE12=Blossom Dearie They Call Me 21.08
TTITLE13=Blossom Dearie They Call Me 21.09
TTITLE14=Oh How I Love The 12-Bar Blues 21.10
TTITLE15=Daydream 21.11
TTITLE16=You Are My Sunshine 21.12
TTITLE17=Whispering-I'm Beginning To See The Light 21.13
TTITLE18=Instrumental 21.14
TTITLE19=Instrumental 21.15
TTITLE20=Unknown 21.16
TTITLE21=Dig A Pony 21.17
TTITLE22=I've Got A Feeling 21.18
TTITLE23=Every Night 21.19
TTITLE24=Dig A Pony 21.20
TTITLE25=Dig A Pony 21.21
TTITLE26=Dig A Pony 21.22
TTITLE27=Watch Your Step 21.23
TTITLE28=New Orleans 21.24
TTITLE29=Madman 21.25
TTITLE30=Dig A Pony 21.26
TTITLE31=The Fool 21.27
TTITLE32=Dig A Pony 21.28
EXTD=
EXTT0=
EXTT1=
EXTT2=
EXTT3=
EXTT4=
EXTT5=
EXTT6=
EXTT7=
EXTT8=
EXTT9=
EXTT10=
EXTT11=
EXTT12=
EXTT13=
EXTT14=
EXTT15=
EXTT16=
EXTT17=
EXTT18=
EXTT19=
EXTT20=
EXTT21=
EXTT22=
EXTT23=
EXTT24=
EXTT25=
EXTT26=
EXTT27=
EXTT28=
EXTT29=
EXTT30=
EXTT31=
EXTT32=
PLAYORDER=
